<svg width="25" height="24" viewBox="0 0 25 24" fill="none" xmlns="http://www.w3.org/2000/svg">
<g id="Icon">
<path id="Subtract" d="M11.916 5.33694C11.916 4.98178 11.73 4.66076 11.5148 4.3782C11.2939 4.0881 11.166 3.744 11.166 3.375C11.166 2.33947 12.1734 1.5 13.416 1.5C14.6587 1.5 15.666 2.33947 15.666 3.375C15.666 3.744 15.5381 4.0881 15.3172 4.3782C15.1021 4.66076 14.916 4.98178 14.916 5.33694C14.916 5.66929 15.1937 5.9346 15.5255 5.9148C17.4361 5.80079 19.3159 5.57328 21.1582 5.23898C21.3609 5.20219 21.5699 5.25044 21.736 5.37241C21.9021 5.49437 22.0107 5.6793 22.0363 5.88377C22.2603 7.67324 22.3873 9.49263 22.4119 11.3365C22.4168 11.7028 22.1193 11.9999 21.753 12C21.3978 12 21.0768 11.814 20.7942 11.5988C20.5041 11.3779 20.16 11.25 19.791 11.25C18.7555 11.25 17.916 12.2574 17.916 13.5C17.916 14.7426 18.7555 15.75 19.791 15.75C20.16 15.75 20.5041 15.6221 20.7942 15.4012C21.0768 15.186 21.3978 15 21.753 15C22.0634 15 22.3099 15.2617 22.2874 15.5713C22.1688 17.2098 21.9691 18.8261 21.6924 20.4161C21.6381 20.728 21.3939 20.9721 21.0821 21.0264C19.2629 21.343 17.4094 21.5587 15.5275 21.6677C15.1945 21.6869 14.916 21.4205 14.916 21.0869C14.916 20.7318 15.1021 20.4108 15.3172 20.1282C15.5381 19.8381 15.666 19.494 15.666 19.125C15.666 18.0895 14.6587 17.25 13.416 17.25C12.1734 17.25 11.166 18.0895 11.166 19.125C11.166 19.494 11.2939 19.8381 11.5148 20.1282C11.73 20.4108 11.916 20.7318 11.916 21.0869C11.916 21.4485 11.62 21.7405 11.2585 21.7303C9.66904 21.6852 8.0984 21.564 6.55015 21.3702C6.34568 21.3446 6.16075 21.236 6.03879 21.0699C5.91682 20.9038 5.86857 20.6948 5.90537 20.4921C6.19824 18.8781 6.40916 17.2354 6.53361 15.5683C6.55659 15.2605 6.31164 15 6.00295 15C5.6478 15 5.32678 15.186 5.04421 15.4012C4.75412 15.6221 4.41001 15.75 4.04102 15.75C3.00548 15.75 2.16602 14.7426 2.16602 13.5C2.16602 12.2574 3.00548 11.25 4.04102 11.25C4.41001 11.25 4.75412 11.3779 5.04421 11.5988C5.32678 11.814 5.6478 12 6.00295 12C6.36932 12 6.66679 11.703 6.66175 11.3367C6.63936 9.70845 6.53463 8.10026 6.3516 6.51628C6.32532 6.28881 6.4044 6.06178 6.56632 5.89986C6.72824 5.73794 6.95526 5.65886 7.18274 5.68515C8.52504 5.84025 9.88462 5.93912 11.2591 5.97931C11.6202 5.98987 11.916 5.69817 11.916 5.33694Z" fill="#262626"/>
</g>
</svg>
