<svg width="25" height="24" viewBox="0 0 25 24" fill="none" xmlns="http://www.w3.org/2000/svg">
<path d="M12.334 2.25C12.7482 2.25 13.084 2.58579 13.084 3V5.25C13.084 5.66421 12.7482 6 12.334 6C11.9198 6 11.584 5.66421 11.584 5.25V3C11.584 2.58579 11.9198 2.25 12.334 2.25Z" fill="#262626"/>
<path d="M7.83398 12C7.83398 9.51472 9.8487 7.5 12.334 7.5C14.8193 7.5 16.834 9.51472 16.834 12C16.834 14.4853 14.8193 16.5 12.334 16.5C9.8487 16.5 7.83398 14.4853 7.83398 12Z" fill="#262626"/>
<path d="M19.2283 6.16634C19.5212 5.87344 19.5212 5.39857 19.2283 5.10568C18.9354 4.81278 18.4606 4.81278 18.1677 5.10568L16.5767 6.69667C16.2838 6.98956 16.2838 7.46444 16.5767 7.75733C16.8696 8.05022 17.3444 8.05022 17.6373 7.75733L19.2283 6.16634Z" fill="#262626"/>
<path d="M22.084 12C22.084 12.4142 21.7482 12.75 21.334 12.75H19.084C18.6698 12.75 18.334 12.4142 18.334 12C18.334 11.5858 18.6698 11.25 19.084 11.25H21.334C21.7482 11.25 22.084 11.5858 22.084 12Z" fill="#262626"/>
<path d="M18.1676 18.8943C18.4604 19.1871 18.9353 19.1871 19.2282 18.8943C19.5211 18.6014 19.5211 18.1265 19.2282 17.8336L17.6372 16.2426C17.3443 15.9497 16.8695 15.9497 16.5766 16.2426C16.2837 16.5355 16.2837 17.0104 16.5766 17.3033L18.1676 18.8943Z" fill="#262626"/>
<path d="M12.334 18C12.7482 18 13.084 18.3358 13.084 18.75V21C13.084 21.4142 12.7482 21.75 12.334 21.75C11.9198 21.75 11.584 21.4142 11.584 21V18.75C11.584 18.3358 11.9198 18 12.334 18Z" fill="#262626"/>
<path d="M8.09149 17.3033C8.38438 17.0104 8.38438 16.5355 8.09149 16.2426C7.79859 15.9497 7.32372 15.9497 7.03083 16.2426L5.43984 17.8336C5.14694 18.1265 5.14694 18.6014 5.43984 18.8943C5.73273 19.1872 6.2076 19.1872 6.5005 18.8943L8.09149 17.3033Z" fill="#262626"/>
<path d="M6.33398 12C6.33398 12.4142 5.9982 12.75 5.58398 12.75H3.33398C2.91977 12.75 2.58398 12.4142 2.58398 12C2.58398 11.5858 2.91977 11.25 3.33398 11.25H5.58398C5.9982 11.25 6.33398 11.5858 6.33398 12Z" fill="#262626"/>
<path d="M7.03071 7.75732C7.32361 8.05021 7.79848 8.05021 8.09137 7.75732C8.38427 7.46443 8.38427 6.98955 8.09137 6.69666L6.50038 5.10567C6.20749 4.81278 5.73262 4.81278 5.43972 5.10567C5.14683 5.39856 5.14683 5.87344 5.43972 6.16633L7.03071 7.75732Z" fill="#262626"/>
</svg>
