<svg width="25" height="24" viewBox="0 0 25 24" fill="none" xmlns="http://www.w3.org/2000/svg">
<g id="Icon">
<g id="Union">
<path d="M18.709 2.25C17.6735 2.25 16.834 3.08947 16.834 4.125V19.875C16.834 20.9105 17.6735 21.75 18.709 21.75H19.459C20.4945 21.75 21.334 20.9105 21.334 19.875V4.125C21.334 3.08947 20.4945 2.25 19.459 2.25H18.709Z" fill="#262626"/>
<path d="M10.084 8.625C10.084 7.58947 10.9235 6.75 11.959 6.75H12.709C13.7445 6.75 14.584 7.58947 14.584 8.625V19.875C14.584 20.9105 13.7445 21.75 12.709 21.75H11.959C10.9235 21.75 10.084 20.9105 10.084 19.875V8.625Z" fill="#262626"/>
<path d="M3.33398 13.125C3.33398 12.0895 4.17345 11.25 5.20898 11.25H5.95898C6.99452 11.25 7.83398 12.0895 7.83398 13.125V19.875C7.83398 20.9105 6.99452 21.75 5.95898 21.75H5.20898C4.17345 21.75 3.33398 20.9105 3.33398 19.875V13.125Z" fill="#262626"/>
</g>
</g>
</svg>
